<svg width="16" height="20" viewBox="0 0 16 20" fill="none" xmlns="http://www.w3.org/2000/svg">
<path d="M12.5 6.66667V7.16667H13H14C14.8471 7.16667 15.5 7.82266 15.5 8.57143V18.0952C15.5 18.844 14.8471 19.5 14 19.5H2C1.15287 19.5 0.5 18.844 0.5 18.0952V8.57143C0.5 7.82266 1.15287 7.16667 2 7.16667H3H3.5V6.66667V4.7619C3.5 2.43218 5.49287 0.5 8 0.5C10.5071 0.5 12.5 2.43218 12.5 4.7619V6.66667ZM11.1 7.16667H11.6V6.66667V4.7619C11.6 2.83448 9.96287 1.30952 8 1.30952C6.03713 1.30952 4.4 2.83448 4.4 4.7619V6.66667V7.16667H4.9H11.1ZM5.5 13.3333C5.5 14.6798 6.64713 15.7381 8 15.7381C9.35287 15.7381 10.5 14.6798 10.5 13.3333C10.5 11.9869 9.35287 10.9286 8 10.9286C6.64713 10.9286 5.5 11.9869 5.5 13.3333Z" fill="#397EF6" stroke="#397EF6"/>
</svg>
