<svg width="17" height="20" viewBox="0 0 17 20" fill="none" xmlns="http://www.w3.org/2000/svg">
<path d="M14.5015 6.66667H13.5015V4.7619C13.5015 2.13333 11.2615 0 8.50146 0C5.74146 0 3.50146 2.13333 3.50146 4.7619V6.66667H2.50146C1.40146 6.66667 0.501465 7.52381 0.501465 8.57143V18.0952C0.501465 19.1429 1.40146 20 2.50146 20H14.5015C15.6015 20 16.5015 19.1429 16.5015 18.0952V8.57143C16.5015 7.52381 15.6015 6.66667 14.5015 6.66667ZM8.50146 15.2381C7.40146 15.2381 6.50146 14.381 6.50146 13.3333C6.50146 12.2857 7.40146 11.4286 8.50146 11.4286C9.60147 11.4286 10.5015 12.2857 10.5015 13.3333C10.5015 14.381 9.60147 15.2381 8.50146 15.2381ZM11.6015 6.66667H5.40146V4.7619C5.40146 3.13333 6.79146 1.80952 8.50146 1.80952C10.2115 1.80952 11.6015 3.13333 11.6015 4.7619V6.66667Z" fill="#BABABA"/>
</svg>
