<svg width="24" height="24" viewBox="0 0 24 24" fill="none" xmlns="http://www.w3.org/2000/svg">
<path d="M16.2939 14.5787H15.3905L15.0703 14.2699C16.191 12.9663 16.8656 11.2739 16.8656 9.43288C16.8656 5.32768 13.538 2.00006 9.43282 2.00006C5.32762 2.00006 2 5.32768 2 9.43288C2 13.5381 5.32762 16.8657 9.43282 16.8657C11.2739 16.8657 12.9663 16.191 14.2699 15.0704L14.5786 15.3906V16.2939L20.2962 22.0001L22 20.2962L16.2939 14.5787ZM9.43282 14.5787C6.58548 14.5787 4.28702 12.2802 4.28702 9.43288C4.28702 6.58554 6.58548 4.28708 9.43282 4.28708C12.2802 4.28708 14.5786 6.58554 14.5786 9.43288C14.5786 12.2802 12.2802 14.5787 9.43282 14.5787Z" fill="#222222"/>
</svg>
