<svg width="20" height="20" viewBox="0 0 20 20" fill="none" xmlns="http://www.w3.org/2000/svg">
<path d="M13.4008 10.6509C14.2995 9.94385 14.9555 8.97425 15.2775 7.87702C15.5994 6.77979 15.5714 5.60948 15.1973 4.52892C14.8232 3.44835 14.1216 2.51127 13.1901 1.84802C12.2586 1.18478 11.1435 0.828369 10 0.828369C8.8565 0.828369 7.74144 1.18478 6.80993 1.84802C5.87843 2.51127 5.17681 3.44835 4.80269 4.52892C4.42857 5.60948 4.40055 6.77979 4.72253 7.87702C5.04451 8.97425 5.70047 9.94385 6.59916 10.6509C5.05924 11.2679 3.71559 12.2911 2.71148 13.6117C1.70737 14.9322 1.08043 16.5004 0.897497 18.1492C0.884255 18.2696 0.894854 18.3914 0.928687 18.5077C0.96252 18.624 1.01893 18.7325 1.09468 18.827C1.24768 19.0178 1.47022 19.14 1.71333 19.1667C1.95645 19.1935 2.20023 19.1226 2.39105 18.9696C2.58186 18.8166 2.70409 18.594 2.73083 18.3509C2.93212 16.559 3.78654 14.9041 5.13086 13.7023C6.47519 12.5005 8.21516 11.8362 10.0183 11.8362C11.8215 11.8362 13.5615 12.5005 14.9058 13.7023C16.2501 14.9041 17.1045 16.559 17.3058 18.3509C17.3308 18.5762 17.4382 18.7842 17.6075 18.9348C17.7768 19.0855 17.9959 19.1681 18.2225 19.1667H18.3233C18.5636 19.1391 18.7832 19.0176 18.9343 18.8287C19.0854 18.6398 19.1558 18.3989 19.13 18.1584C18.9462 16.5049 18.3159 14.9326 17.3066 13.6101C16.2973 12.2875 14.9472 11.2646 13.4008 10.6509ZM10 10.0001C9.2748 10.0001 8.56589 9.78503 7.96291 9.38213C7.35993 8.97923 6.88996 8.40658 6.61244 7.73658C6.33492 7.06659 6.26231 6.32934 6.40378 5.61808C6.54526 4.90681 6.89448 4.25347 7.40727 3.74068C7.92006 3.22789 8.5734 2.87867 9.28467 2.73719C9.99593 2.59572 10.7332 2.66833 11.4032 2.94585C12.0732 3.22337 12.6458 3.69334 13.0487 4.29632C13.4516 4.8993 13.6667 5.60821 13.6667 6.33341C13.6667 7.30587 13.2804 8.2385 12.5927 8.92613C11.9051 9.61377 10.9725 10.0001 10 10.0001Z" fill="white"/>
</svg>
