<svg width="20" height="20" viewBox="0 0 20 20" fill="none" xmlns="http://www.w3.org/2000/svg">
<path d="M14.2939 12.5787H13.3905L13.0703 12.2699C14.191 10.9663 14.8656 9.27393 14.8656 7.43288C14.8656 3.32768 11.538 6.10352e-05 7.43282 6.10352e-05C3.32762 6.10352e-05 0 3.32768 0 7.43288C0 11.5381 3.32762 14.8657 7.43282 14.8657C9.27387 14.8657 10.9663 14.191 12.2699 13.0704L12.5786 13.3906V14.2939L18.2962 20.0001L20 18.2962L14.2939 12.5787ZM7.43282 12.5787C4.58548 12.5787 2.28702 10.2802 2.28702 7.43288C2.28702 4.58554 4.58548 2.28708 7.43282 2.28708C10.2802 2.28708 12.5786 4.58554 12.5786 7.43288C12.5786 10.2802 10.2802 12.5787 7.43282 12.5787Z" fill="#222222"/>
</svg>
