<svg width="17" height="20" viewBox="0 0 17 20" fill="none" xmlns="http://www.w3.org/2000/svg">
<path d="M14.0016 6.66667H13.0016V4.7619C13.0016 2.13333 10.7616 0 8.00159 0C5.24159 0 3.00159 2.13333 3.00159 4.7619V6.66667H2.00159C0.901587 6.66667 0.00158691 7.52381 0.00158691 8.57143V18.0952C0.00158691 19.1429 0.901587 20 2.00159 20H14.0016C15.1016 20 16.0016 19.1429 16.0016 18.0952V8.57143C16.0016 7.52381 15.1016 6.66667 14.0016 6.66667ZM8.00159 15.2381C6.90159 15.2381 6.00159 14.381 6.00159 13.3333C6.00159 12.2857 6.90159 11.4286 8.00159 11.4286C9.10159 11.4286 10.0016 12.2857 10.0016 13.3333C10.0016 14.381 9.10159 15.2381 8.00159 15.2381ZM11.1016 6.66667H4.90159V4.7619C4.90159 3.13333 6.29159 1.80952 8.00159 1.80952C9.71159 1.80952 11.1016 3.13333 11.1016 4.7619V6.66667Z" fill="#C9C9D2"/>
</svg>
