<svg width="24" height="24" viewBox="0 0 24 24" fill="none" xmlns="http://www.w3.org/2000/svg">
<path d="M15.4008 12.6509C16.2995 11.9438 16.9555 10.9743 17.2775 9.87702C17.5994 8.77979 17.5714 7.60948 17.1973 6.52892C16.8232 5.44835 16.1216 4.51127 15.1901 3.84802C14.2586 3.18478 13.1435 2.82837 12 2.82837C10.8565 2.82837 9.74144 3.18478 8.80993 3.84802C7.87843 4.51127 7.17681 5.44835 6.80269 6.52892C6.42857 7.60948 6.40055 8.77979 6.72253 9.87702C7.04451 10.9743 7.70047 11.9438 8.59916 12.6509C7.05924 13.2679 5.71559 14.2911 4.71148 15.6117C3.70737 16.9322 3.08043 18.5004 2.8975 20.1492C2.88426 20.2696 2.89485 20.3914 2.92869 20.5077C2.96252 20.624 3.01893 20.7325 3.09468 20.827C3.24768 21.0178 3.47022 21.14 3.71333 21.1667C3.95645 21.1935 4.20023 21.1226 4.39105 20.9696C4.58186 20.8166 4.70409 20.594 4.73083 20.3509C4.93212 18.559 5.78654 16.9041 7.13086 15.7023C8.47519 14.5005 10.2152 13.8362 12.0183 13.8362C13.8215 13.8362 15.5615 14.5005 16.9058 15.7023C18.2501 16.9041 19.1045 18.559 19.3058 20.3509C19.3308 20.5762 19.4382 20.7842 19.6075 20.9348C19.7768 21.0855 19.9959 21.1681 20.2225 21.1667H20.3233C20.5636 21.1391 20.7832 21.0176 20.9343 20.8287C21.0854 20.6398 21.1558 20.3989 21.13 20.1584C20.9462 18.5049 20.3159 16.9326 19.3066 15.6101C18.2973 14.2875 16.9472 13.2646 15.4008 12.6509ZM12 12.0001C11.2748 12.0001 10.5659 11.785 9.96291 11.3821C9.35993 10.9792 8.88996 10.4066 8.61244 9.73658C8.33492 9.06659 8.26231 8.32934 8.40378 7.61808C8.54526 6.90681 8.89448 6.25347 9.40727 5.74068C9.92006 5.22789 10.5734 4.87867 11.2847 4.73719C11.9959 4.59572 12.7332 4.66833 13.4032 4.94585C14.0732 5.22337 14.6458 5.69334 15.0487 6.29632C15.4516 6.8993 15.6667 7.60821 15.6667 8.33341C15.6667 9.30587 15.2804 10.2385 14.5927 10.9261C13.9051 11.6138 12.9725 12.0001 12 12.0001Z" fill="white"/>
</svg>
