<svg width="28" height="28" viewBox="0 0 28 28" fill="none" xmlns="http://www.w3.org/2000/svg">
<path d="M14 5.99996C14.7364 5.99996 15.3333 6.59691 15.3333 7.33329V15.3333C15.3333 16.0697 14.7364 16.6666 14 16.6666C13.2636 16.6666 12.6667 16.0697 12.6667 15.3333V7.33329C12.6667 6.59691 13.2636 5.99996 14 5.99996Z" fill="#FF6262"/>
<path d="M14 19.3333C13.2636 19.3333 12.6667 19.9302 12.6667 20.6666C12.6667 21.403 13.2636 22 14 22C14.7364 22 15.3333 21.403 15.3333 20.6666C15.3333 19.9302 14.7364 19.3333 14 19.3333Z" fill="#FF6262"/>
<path fill-rule="evenodd" clip-rule="evenodd" d="M14 0.666626C6.63619 0.666626 0.666656 6.63616 0.666656 14C0.666656 21.3638 6.63619 27.3333 14 27.3333C21.3638 27.3333 27.3333 21.3638 27.3333 14C27.3333 6.63616 21.3638 0.666626 14 0.666626ZM3.33332 14C3.33332 19.891 8.10895 24.6666 14 24.6666C19.891 24.6666 24.6667 19.891 24.6667 14C24.6667 8.10892 19.891 3.33329 14 3.33329C8.10895 3.33329 3.33332 8.10892 3.33332 14Z" fill="#FF6262"/>
</svg>
