<svg width="80" height="80" viewBox="0 0 80 80" fill="none" xmlns="http://www.w3.org/2000/svg">
<g clip-path="url(#clip0_38_6993)">
<path d="M0 40C0 17.9086 17.9086 0 40 0C62.0914 0 80 17.9086 80 40C80 62.0914 62.0914 80 40 80C17.9086 80 0 62.0914 0 40Z" fill="#EBECF3"/>
<path d="M39.9999 52.9999C47.3666 52.9999 53.3332 47.0333 53.3332 39.6666C53.3332 32.2999 47.3666 26.3333 39.9999 26.3333C32.6332 26.3333 26.6666 32.2999 26.6666 39.6666C26.6666 47.0333 32.6332 52.9999 39.9999 52.9999ZM39.9999 59.6666C31.0999 59.6666 13.3333 64.1332 13.3333 72.9999V79.6666H66.6666V72.9999C66.6666 64.1332 48.8999 59.6666 39.9999 59.6666Z" fill="#BABABA"/>
</g>
<defs>
<clipPath id="clip0_38_6993">
<path d="M0 40C0 17.9086 17.9086 0 40 0C62.0914 0 80 17.9086 80 40C80 62.0914 62.0914 80 40 80C17.9086 80 0 62.0914 0 40Z" fill="white"/>
</clipPath>
</defs>
</svg>
