<svg width="32" height="32" viewBox="0 0 32 32" fill="none" xmlns="http://www.w3.org/2000/svg">
<path d="M15.9998 8.00002C16.7362 8.00002 17.3332 8.59697 17.3332 9.33335V17.3334C17.3332 18.0697 16.7362 18.6667 15.9998 18.6667C15.2635 18.6667 14.6665 18.0697 14.6665 17.3334V9.33335C14.6665 8.59697 15.2635 8.00002 15.9998 8.00002Z" fill="#FF6262"/>
<path d="M15.9998 21.3334C15.2635 21.3334 14.6665 21.9303 14.6665 22.6667C14.6665 23.4031 15.2635 24 15.9998 24C16.7362 24 17.3332 23.4031 17.3332 22.6667C17.3332 21.9303 16.7362 21.3334 15.9998 21.3334Z" fill="#FF6262"/>
<path fill-rule="evenodd" clip-rule="evenodd" d="M15.9998 2.66669C8.63604 2.66669 2.6665 8.63622 2.6665 16C2.6665 23.3638 8.63604 29.3334 15.9998 29.3334C23.3636 29.3334 29.3332 23.3638 29.3332 16C29.3332 8.63622 23.3636 2.66669 15.9998 2.66669ZM5.33317 16C5.33317 21.8911 10.1088 26.6667 15.9998 26.6667C21.8909 26.6667 26.6665 21.8911 26.6665 16C26.6665 10.109 21.8909 5.33335 15.9998 5.33335C10.1088 5.33335 5.33317 10.109 5.33317 16Z" fill="#FF6262"/>
</svg>
