<svg width="48" height="48" viewBox="0 0 48 48" fill="none" xmlns="http://www.w3.org/2000/svg">
<g clip-path="url(#clip0_72_37489)">
<path d="M0 24C0 10.7452 10.7452 0 24 0C37.2548 0 48 10.7452 48 24C48 37.2548 37.2548 48 24 48C10.7452 48 0 37.2548 0 24Z" fill="#EBECF3"/>
<g clip-path="url(#clip1_72_37489)">
<path d="M24 31.8001C28.42 31.8001 32 28.2201 32 23.8001C32 19.38 28.42 15.8 24 15.8C19.58 15.8 16 19.38 16 23.8001C16 28.2201 19.58 31.8001 24 31.8001ZM24 35.8001C18.66 35.8001 8 38.4801 8 43.8001V47.8001H40V43.8001C40 38.4801 29.34 35.8001 24 35.8001Z" fill="#BABABA"/>
</g>
</g>
<defs>
<clipPath id="clip0_72_37489">
<path d="M0 24C0 10.7452 10.7452 0 24 0C37.2548 0 48 10.7452 48 24C48 37.2548 37.2548 48 24 48C10.7452 48 0 37.2548 0 24Z" fill="white"/>
</clipPath>
<clipPath id="clip1_72_37489">
<rect width="48" height="48" fill="white" transform="translate(0 7.80005)"/>
</clipPath>
</defs>
</svg>
