<svg width="135" height="25" viewBox="0 0 135 25" fill="none" xmlns="http://www.w3.org/2000/svg">
<path d="M4.7093 17.0513C4.8588 18.1303 5.15247 18.937 5.59029 19.4712C6.3912 20.4434 7.76341 20.9295 9.70693 20.9295C10.8709 20.9295 11.816 20.8013 12.5421 20.5449C13.9197 20.0534 14.6084 19.14 14.6084 17.8045C14.6084 17.0246 14.2667 16.4209 13.5833 15.9936C12.8999 15.5769 11.8266 15.2083 10.3637 14.8878L7.86486 14.3269C5.40876 13.7714 3.71084 13.1677 2.77112 12.516C1.18 11.4263 0.384433 9.72222 0.384433 7.40385C0.384433 5.28846 1.1533 3.53098 2.69103 2.13141C4.22876 0.731838 6.4873 0.0320513 9.46666 0.0320513C11.9548 0.0320513 14.0745 0.694445 15.8258 2.01923C17.5878 3.33333 18.5115 5.24573 18.5969 7.75641H13.8556C13.7702 6.33547 13.1508 5.32585 11.9975 4.72756C11.2286 4.33227 10.2729 4.13462 9.13028 4.13462C7.85952 4.13462 6.84504 4.39103 6.08685 4.90385C5.32867 5.41667 4.94957 6.13248 4.94957 7.05128C4.94957 7.8953 5.32333 8.52564 6.07084 8.94231C6.55138 9.22009 7.57653 9.54594 9.1463 9.91987L13.2149 10.8974C14.9982 11.3248 16.3437 11.8964 17.2514 12.6122C18.661 13.7233 19.3658 15.3312 19.3658 17.4359C19.3658 19.594 18.5382 21.3889 16.883 22.8205C15.2385 24.2415 12.9105 24.9519 9.89915 24.9519C6.82368 24.9519 4.40496 24.2521 2.64298 22.8526C0.880992 21.4423 0 19.5085 0 17.0513H4.7093Z" fill="#397EF6"/>
<path d="M23.0179 0.721154H27.9515V20.0962H39.6446V24.343H23.0179V0.721154Z" fill="#397EF6"/>
<path d="M53.5163 20.8173C55.4705 20.8173 57.0189 20.0962 58.1615 18.6538C59.3148 17.2115 59.8914 15.1603 59.8914 12.5C59.8914 9.85043 59.3148 7.80449 58.1615 6.36218C57.0189 4.90919 55.4705 4.18269 53.5163 4.18269C51.5621 4.18269 50.003 4.90385 48.839 6.34615C47.675 7.78846 47.093 9.83974 47.093 12.5C47.093 15.1603 47.675 17.2115 48.839 18.6538C50.003 20.0962 51.5621 20.8173 53.5163 20.8173ZM64.825 12.5C64.825 16.7415 63.6343 19.9893 61.253 22.2436C59.4696 24.0812 56.8907 25 53.5163 25C50.1418 25 47.5629 24.0812 45.7795 22.2436C43.3875 19.9893 42.1915 16.7415 42.1915 12.5C42.1915 8.17308 43.3875 4.92521 45.7795 2.75641C47.5629 0.918804 50.1418 0 53.5163 0C56.8907 0 59.4696 0.918804 61.253 2.75641C63.6343 4.92521 64.825 8.17308 64.825 12.5Z" fill="#397EF6"/>
<path d="M68.5252 0.721154H73.699L83.1016 17.2115V0.721154H87.6987V24.343H82.7652L73.1223 7.5641V24.343H68.5252V0.721154Z" fill="#397EF6"/>
<path d="M91.2868 12.7244C91.2868 8.60043 92.392 5.42201 94.6025 3.1891C96.5247 1.24466 98.9701 0.272436 101.939 0.272436C105.911 0.272436 108.816 1.57585 110.653 4.18269C111.667 5.64637 112.212 7.11539 112.286 8.58974H107.353C107.033 7.45727 106.621 6.60256 106.119 6.02564C105.222 5 103.893 4.48718 102.131 4.48718C100.337 4.48718 98.922 5.21368 97.8862 6.66667C96.8504 8.10897 96.3325 10.1549 96.3325 12.8045C96.3325 15.4541 96.8771 17.4412 97.9663 18.766C99.0662 20.0801 100.46 20.7372 102.147 20.7372C103.877 20.7372 105.196 20.1709 106.103 19.0385C106.605 18.4295 107.022 17.516 107.353 16.2981H112.238C111.811 18.8729 110.717 20.9669 108.955 22.5801C107.203 24.1934 104.956 25 102.211 25C98.8153 25 96.1456 23.9103 94.2021 21.7308C92.2585 19.5406 91.2868 16.5385 91.2868 12.7244Z" fill="#397EF6"/>
<path d="M115.987 24.343V0.721154H120.872V9.72756H130.098V0.721154H135V24.343H130.098V13.7981H120.872V24.343H115.987Z" fill="#397EF6"/>
</svg>
