<svg width="81" height="16" viewBox="0 0 81 16" fill="none" xmlns="http://www.w3.org/2000/svg">
<path d="M2.82558 10.7308C2.91528 11.3782 3.09148 11.8622 3.35418 12.1827C3.83472 12.766 4.65804 13.0577 5.82416 13.0577C6.52254 13.0577 7.08958 12.9808 7.52527 12.8269C8.3518 12.5321 8.76507 11.984 8.76507 11.1827C8.76507 10.7147 8.56004 10.3526 8.14998 10.0962C7.73991 9.84615 7.09599 9.625 6.2182 9.43269L4.71891 9.09615C3.24525 8.76282 2.22651 8.40064 1.66267 8.00962C0.707997 7.35577 0.23066 6.33333 0.23066 4.94231C0.23066 3.67308 0.691979 2.61859 1.61462 1.77885C2.53726 0.939103 3.89238 0.519231 5.68 0.519231C7.17288 0.519231 8.44471 0.916667 9.49549 1.71154C10.5527 2.5 11.1069 3.64744 11.1582 5.15385H8.31336C8.2621 4.30128 7.89048 3.69551 7.19851 3.33654C6.73719 3.09936 6.16374 2.98077 5.47817 2.98077C4.71571 2.98077 4.10702 3.13462 3.65211 3.44231C3.1972 3.75 2.96974 4.17949 2.96974 4.73077C2.96974 5.23718 3.194 5.61538 3.6425 5.86538C3.93083 6.03205 4.54592 6.22756 5.48778 6.45192L7.92893 7.03846C8.99893 7.29487 9.80624 7.63782 10.3509 8.06731C11.1966 8.73397 11.6195 9.69872 11.6195 10.9615C11.6195 12.2564 11.1229 13.3333 10.1298 14.1923C9.14309 15.0449 7.74632 15.4712 5.93949 15.4712C4.09421 15.4712 2.64298 15.0513 1.58579 14.2115C0.528595 13.3654 0 12.2051 0 10.7308H2.82558Z" fill="#397EF6"/>
<path d="M13.8108 0.932692H16.7709V12.5577H23.7868V15.1058H13.8108V0.932692Z" fill="#397EF6"/>
<path d="M32.1098 12.9904C33.2823 12.9904 34.2113 12.5577 34.8969 11.6923C35.5889 10.8269 35.9349 9.59615 35.9349 8C35.9349 6.41026 35.5889 5.18269 34.8969 4.31731C34.2113 3.44551 33.2823 3.00962 32.1098 3.00962C30.9372 3.00962 30.0018 3.44231 29.3034 4.30769C28.605 5.17308 28.2558 6.40385 28.2558 8C28.2558 9.59615 28.605 10.8269 29.3034 11.6923C30.0018 12.5577 30.9372 12.9904 32.1098 12.9904ZM38.895 8C38.895 10.5449 38.1806 12.4936 36.7518 13.8462C35.6818 14.9487 34.1344 15.5 32.1098 15.5C30.0851 15.5 28.5377 14.9487 27.4677 13.8462C26.0325 12.4936 25.3149 10.5449 25.3149 8C25.3149 5.40385 26.0325 3.45513 27.4677 2.15385C28.5377 1.05128 30.0851 0.5 32.1098 0.5C34.1344 0.5 35.6818 1.05128 36.7518 2.15385C38.1806 3.45513 38.895 5.40385 38.895 8Z" fill="#397EF6"/>
<path d="M41.1151 0.932692H44.2194L49.8609 10.8269V0.932692H52.6192V15.1058H49.6591L43.8734 5.03846V15.1058H41.1151V0.932692Z" fill="#397EF6"/>
<path d="M54.7721 8.13462C54.7721 5.66026 55.4352 3.75321 56.7615 2.41346C57.9148 1.24679 59.3821 0.663462 61.1633 0.663462C63.5468 0.663462 65.2895 1.44551 66.3916 3.00962C67.0002 3.88782 67.327 4.76923 67.3719 5.65385H64.4117C64.2195 4.97436 63.9728 4.46154 63.6717 4.11538C63.1335 3.5 62.3358 3.19231 61.2786 3.19231C60.2022 3.19231 59.3532 3.62821 58.7317 4.5C58.1102 5.36538 57.7995 6.59295 57.7995 8.18269C57.7995 9.77244 58.1262 10.9647 58.7798 11.7596C59.4397 12.5481 60.2759 12.9423 61.2882 12.9423C62.3262 12.9423 63.1175 12.6026 63.6621 11.9231C63.9632 11.5577 64.2131 11.0096 64.4117 10.2788H67.343C67.0867 11.8237 66.43 13.0801 65.3728 14.0481C64.322 15.016 62.9733 15.5 61.3267 15.5C59.2892 15.5 57.6874 14.8462 56.5212 13.5385C55.3551 12.2244 54.7721 10.4231 54.7721 8.13462Z" fill="#397EF6"/>
<path d="M69.592 15.1058V0.932692H72.5233V6.33654H78.0591V0.932692H81V15.1058H78.0591V8.77885H72.5233V15.1058H69.592Z" fill="#397EF6"/>
</svg>
