<svg width="28" height="28" viewBox="0 0 28 28" fill="none" xmlns="http://www.w3.org/2000/svg">
<g clip-path="url(#clip0_72_37490)">
<path d="M0 14C0 6.26801 6.26801 0 14 0C21.732 0 28 6.26801 28 14C28 21.732 21.732 28 14 28C6.26801 28 0 21.732 0 14Z" fill="#EBECF3"/>
<path d="M14.0001 18.5501C16.5784 18.5501 18.6668 16.4618 18.6668 13.8835C18.6668 11.3051 16.5784 9.2168 14.0001 9.2168C11.4218 9.2168 9.33342 11.3051 9.33342 13.8835C9.33342 16.4618 11.4218 18.5501 14.0001 18.5501ZM14.0001 20.8835C10.8851 20.8835 4.66675 22.4468 4.66675 25.5501V27.8835H23.3334V25.5501C23.3334 22.4468 17.1151 20.8835 14.0001 20.8835Z" fill="#BABABA"/>
</g>
<defs>
<clipPath id="clip0_72_37490">
<path d="M0 14C0 6.26801 6.26801 0 14 0C21.732 0 28 6.26801 28 14C28 21.732 21.732 28 14 28C6.26801 28 0 21.732 0 14Z" fill="white"/>
</clipPath>
</defs>
</svg>
